<?xml version="1.0" standalone="no"?>
<!DOCTYPE svg PUBLIC "-//W3C//DTD SVG 20010904//EN"
 "http://www.w3.org/TR/2001/REC-SVG-20010904/DTD/svg10.dtd">
<svg version="1.0" xmlns="http://www.w3.org/2000/svg"
 width="144.000000pt" height="144.000000pt" viewBox="0 0 144.000000 144.000000"
 preserveAspectRatio="xMidYMid meet">
<metadata>
Created by potrace 1.14, written by Peter Selinger 2001-2017
</metadata>
<g transform="translate(0.000000,144.000000) scale(0.100000,-0.100000)"
fill="#000000" stroke="none">
<path d="M820 1382 c-5 -2 -10 -12 -10 -23 0 -23 -15 -25 -24 -4 -9 24 -49 17
-93 -15 l-42 -31 -3 28 c-3 26 -6 28 -53 28 -27 0 -54 3 -60 6 -15 10 -112 1
-136 -12 -12 -6 -18 -17 -15 -25 9 -23 -8 -16 -37 14 -25 26 -37 29 -95 23 -9
-1 -12 -28 -10 -106 2 -103 3 -106 29 -119 23 -11 29 -11 50 5 31 24 60 24 66
-1 3 -10 14 -22 24 -25 17 -6 19 -17 19 -92 0 -48 3 -84 6 -80 4 3 6 45 5 92
-1 47 2 85 7 85 5 0 8 -22 7 -50 -1 -27 2 -50 6 -50 5 0 9 23 9 50 0 37 4 50
14 50 12 0 14 -16 13 -76 -2 -42 1 -78 5 -80 4 -3 8 33 10 78 2 51 7 81 13 78
6 -3 10 -23 11 -45 0 -22 4 -48 8 -57 4 -9 4 -24 -1 -33 -9 -16 8 -84 44 -175
8 -19 13 -49 11 -67 -3 -37 19 -66 44 -60 15 4 18 1 12 -16 -3 -12 -17 -33
-30 -47 -14 -14 -31 -34 -38 -45 -12 -17 -16 -18 -31 -5 -25 21 -84 39 -91 29
-3 -5 -18 -9 -34 -9 -15 0 -30 -5 -32 -10 -3 -9 -16 -14 -65 -24 -18 -3 -28
-15 -29 -37 -1 -10 -2 -25 -3 -31 0 -7 -8 -2 -17 10 -26 37 -63 50 -128 46
-33 -3 -62 -6 -64 -9 -3 -2 0 -32 5 -65 5 -34 6 -63 2 -66 -13 -8 -7 -75 7
-81 7 -2 21 -6 31 -7 20 -3 20 -5 23 -116 1 -41 4 -68 7 -60 3 8 11 22 18 30
7 8 13 40 13 70 0 77 1 80 12 80 6 0 10 -13 10 -30 0 -16 5 -30 10 -30 6 0 10
16 10 36 0 19 4 33 8 30 5 -3 8 -35 7 -71 -1 -36 2 -65 7 -65 4 0 8 32 8 71 0
67 11 109 29 109 5 0 8 -8 7 -17 0 -9 9 -22 21 -28 22 -11 22 -11 2 -41 -21
-33 -25 -74 -7 -92 9 -9 8 -15 -8 -27 -10 -8 -25 -15 -32 -15 -27 0 -6 -35 28
-45 19 -5 41 -14 48 -18 33 -22 82 34 82 93 0 21 4 30 12 28 8 -3 13 -23 13
-49 1 -46 11 -73 25 -64 4 3 13 -2 20 -10 30 -36 60 0 61 73 1 31 3 49 6 40 2
-10 9 -18 14 -18 5 0 9 -8 9 -18 0 -23 46 -67 83 -81 20 -8 42 -7 80 1 28 7
57 11 62 9 6 -2 44 -4 85 -5 41 0 83 -6 92 -11 9 -6 44 -8 78 -7 59 4 62 6 75
35 9 22 10 36 3 44 -6 8 -7 24 -2 40 4 16 7 34 7 41 -3 79 3 72 -62 72 -33 0
-62 4 -66 10 -7 11 -36 2 -51 -16 -9 -11 -14 -11 -32 2 -12 8 -22 22 -22 31 0
11 4 13 13 6 22 -17 104 -2 92 17 -3 5 -2 10 4 10 6 0 17 -12 25 -27 14 -27
17 -27 20 -3 1 12 6 13 29 4 14 -5 26 1 43 22 21 24 24 25 19 8 -3 -13 1 -26
10 -34 11 -9 15 -33 15 -93 0 -44 3 -77 7 -73 4 4 6 39 5 77 -2 38 1 69 6 69
5 0 8 -23 7 -50 -1 -28 2 -50 7 -50 4 0 8 23 8 50 0 38 4 50 15 50 17 0 17 0
19 -79 2 -92 16 -85 16 8 0 45 4 80 9 77 5 -3 8 -28 7 -56 -2 -27 1 -50 6 -50
4 0 8 22 8 48 0 28 8 64 20 87 11 21 16 41 11 44 -5 4 -8 40 -8 81 l2 75 -50
0 c-27 0 -55 4 -62 8 -7 4 -24 5 -38 3 -38 -7 -137 13 -157 31 -10 9 -24 13
-31 10 -8 -3 -19 -1 -25 5 -6 6 -18 7 -29 3 -10 -5 -26 -9 -36 -10 -48 -5 -88
199 -60 305 7 30 13 77 12 105 -2 56 8 115 21 115 14 0 20 -30 20 -106 0 -42
4 -73 8 -70 5 3 9 46 9 97 1 95 12 121 40 93 22 -22 56 -18 50 5 -4 17 -2 18
19 9 13 -6 27 -20 30 -31 6 -20 7 -20 18 -1 6 10 25 20 41 22 40 4 75 28 76
52 1 11 2 26 3 33 5 34 -22 102 -48 121 -36 27 -105 26 -146 -4 l-30 -21 -37
30 c-36 28 -80 36 -123 23z m280 -117 c0 -9 -9 -15 -22 -15 -22 1 -23 1 -4 15
25 19 26 19 26 0z m-290 -19 c0 -19 -4 -22 -25 -18 -35 6 -41 20 -13 31 34 14
38 13 38 -13z m21 -108 c10 -13 18 -30 18 -38 0 -11 -4 -10 -15 5 -38 49 -41
77 -3 33z m-261 -7 c0 -6 -4 -13 -10 -16 -5 -3 -10 1 -10 9 0 9 5 16 10 16 6
0 10 -4 10 -9z m610 -654 c0 -5 -4 -5 -10 -2 -5 3 -10 14 -10 23 0 15 2 15 10
2 5 -8 10 -19 10 -23z m-120 -52 c-16 -19 -30 -19 -30 -1 0 8 8 16 18 18 24 6
27 1 12 -17z m-433 -91 c1 -27 0 -42 -4 -34 -3 8 -12 19 -19 23 -15 8 -19 49
-7 61 16 16 28 -4 30 -50z m-47 11 c0 -15 -6 -25 -14 -25 -11 0 -12 5 -3 25
15 31 17 31 17 0z m-40 -10 c0 -8 -7 -15 -15 -15 -16 0 -20 12 -8 23 11 12 23
8 23 -8z m-45 -5 c3 -5 -1 -10 -9 -10 -9 0 -16 5 -16 10 0 6 4 10 9 10 6 0 13
-4 16 -10z m335 0 c0 -5 -4 -10 -10 -10 -5 0 -9 -4 -7 -9 4 -15 -6 -15 -43 -2
-31 11 -33 14 -15 21 28 12 75 12 75 0z m-417 -7 c-7 -2 -21 -2 -30 0 -10 3
-4 5 12 5 17 0 24 -2 18 -5z m302 -2 c-11 -5 -24 -6 -28 -4 -4 3 -14 0 -21 -6
-10 -9 -15 -8 -20 4 -4 12 3 15 42 14 34 0 41 -3 27 -8z m-538 -43 c-3 -7 -5
-2 -5 12 0 14 2 19 5 13 2 -7 2 -19 0 -25z m0 -60 c-3 -7 -5 -2 -5 12 0 14 2
19 5 13 2 -7 2 -19 0 -25z m553 -6 c0 -13 -12 -22 -22 -16 -10 6 -1 24 13 24
5 0 9 -4 9 -8z m260 -32 c0 -5 -4 -10 -10 -10 -5 0 -10 5 -10 10 0 6 5 10 10
10 6 0 10 -4 10 -10z"/>
</g>
</svg>
